<svg xmlns="http://www.w3.org/2000/svg" width="18" height="18" viewBox="0 0 800 800" fill="none">
	<path d="M427.159 9.22193L692.803 94.2147C710.683 99.9311 726.282 111.182 737.35 126.344C748.418 141.505 754.382 159.792 754.379 178.564V356.681C754.379 435.925 738.19 517.698 688.45 593.6C638.71 669.401 557.65 735.941 433.838 788.669C423.199 793.2 411.754 795.535 400.19 795.535C388.626 795.535 377.181 793.2 366.541 788.669C242.724 735.941 161.669 669.401 111.929 593.6C62.1896 517.698 46 435.925 46 356.681V178.584C45.9931 159.809 51.9544 141.518 63.0227 126.352C74.091 111.187 89.6934 99.9322 107.576 94.2147L373.22 9.20062C390.764 3.59252 409.62 3.59998 427.159 9.22193Z" fill="#000AFF"/>
	<path d="M566.156 320.272L389.06 497.378C381.944 504.484 372.299 508.474 362.242 508.474C352.186 508.474 342.541 504.484 335.425 497.378L259.527 421.476C255.815 417.998 252.84 413.808 250.779 409.157C248.718 404.506 247.613 399.488 247.53 394.401C247.448 389.314 248.388 384.263 250.297 379.547C252.205 374.831 255.042 370.547 258.64 366.95C262.237 363.353 266.52 360.515 271.236 358.607C275.952 356.698 281.003 355.757 286.089 355.84C291.176 355.923 296.193 357.028 300.844 359.089C305.495 361.15 309.684 364.125 313.163 367.837L362.242 416.92L512.521 266.66C519.709 259.925 529.234 256.249 539.083 256.409C548.932 256.569 558.332 260.553 565.297 267.519C572.262 274.484 576.246 283.885 576.406 293.734C576.567 303.584 572.891 313.11 566.156 320.298V320.272Z" fill="#A9E500"/>
</svg>
