<svg width="18" height="18" viewBox="0 0 18 18" fill="none" xmlns="http://www.w3.org/2000/svg">
<g clip-path="url(#clip0)">
<mask id="mask0" mask-type="alpha" maskUnits="userSpaceOnUse" x="0" y="0" width="19" height="19">
<path d="M3.63952 11.4523L2.70602 12.4504L0 9.66435V5.41204C0 4.98469 0.346133 4.63889 0.773148 4.63889H6.95833L9.59177 0.68783C9.87864 0.258219 10.3612 0 10.8778 0H17.7824C18.2094 0 18.5556 0.345803 18.5556 0.773148V7.67787C18.5556 8.19431 18.2975 8.67678 17.8678 8.96369L13.9167 11.5972V17.7824C13.9167 18.2098 13.5705 18.5556 13.1435 18.5556H8.8912L6.18518 15.8495L7.1109 14.9239L5.94277 13.7558L4.99956 14.6989L3.85644 13.5558L4.79971 12.6127L3.63952 11.4523Z" fill="white"/>
<path d="M1.5463 13.9167V17.0093H4.63889V18.5556H0V13.9167H1.5463Z" fill="white"/>
</mask>
<g mask="url(#mask0)">
<path fill-rule="evenodd" clip-rule="evenodd" d="M0 13.9167L1.5463 13.9167V17.0093H4.63889V18.5556H0V13.9167Z" fill="#91B0F2"/>
<path d="M0 5.41206V9.66438L2.70602 12.4507L3.86574 11.2107L7.34491 14.6898L6.18519 15.8496L8.8912 18.5556H13.1435C13.5705 18.5556 13.9167 18.2094 13.9167 17.7824V11.5972L6.95833 4.63892H0.773149C0.346151 4.63892 0 4.98507 0 5.41206Z" fill="#0F46BD"/>
<g filter="url(#filter0_f)">
<path fill-rule="evenodd" clip-rule="evenodd" d="M2.89929 10.7122L10.0509 0H18.5555V8.50463L7.84337 15.6563L2.89929 10.7122Z" fill="#062AA9"/>
</g>
<path fill-rule="evenodd" clip-rule="evenodd" d="M3.34777 11.1607C3.08704 10.8999 3.04672 10.4913 3.25146 10.1847L9.59178 0.68772C9.87865 0.258031 10.3612 0 10.8778 0H17.7824C18.2094 0 18.5555 0.346148 18.5555 0.773144V7.67774C18.5555 8.19438 18.2975 8.67689 17.8678 8.96376L8.37088 15.3041C8.0642 15.5088 7.65562 15.4685 7.39488 15.2078L3.34777 11.1607Z" fill="#2560E0"/>
<g filter="url(#filter1_f)">
<path fill-rule="evenodd" clip-rule="evenodd" d="M3.85645 13.5561L9.75943 7.65308L10.9025 8.79617L4.99954 14.6992L3.85645 13.5561Z" fill="#0A44C2"/>
</g>
<path fill-rule="evenodd" clip-rule="evenodd" d="M3.85645 13.5561L9.75943 7.65308L10.9025 8.79617L4.99954 14.6992L3.85645 13.5561Z" fill="#729AF2"/>
<path d="M5.9429 13.7558L4.7998 12.6127L9.75945 7.65308L10.9025 8.79619L5.9429 13.7558Z" fill="#4C80F0"/>
<g filter="url(#filter2_f)">
<path d="M13.9167 6.95847C15.1977 6.95847 16.2361 5.92002 16.2361 4.63902C16.2361 3.35803 15.1977 2.31958 13.9167 2.31958C12.6357 2.31958 11.5972 3.35803 11.5972 4.63902C11.5972 5.92002 12.6357 6.95847 13.9167 6.95847Z" fill="#0A44C2"/>
</g>
<path d="M13.9167 6.95847C15.1977 6.95847 16.2361 5.92002 16.2361 4.63902C16.2361 3.35803 15.1977 2.31958 13.9167 2.31958C12.6357 2.31958 11.5972 3.35803 11.5972 4.63902C11.5972 5.92002 12.6357 6.95847 13.9167 6.95847Z" fill="#91B0F2"/>
<g opacity="0.2">
<path d="M3.63952 11.4523L2.70602 12.4504L0 9.66435V5.41204C0 4.98469 0.346133 4.63889 0.773148 4.63889H6.95833L9.59177 0.68783C9.87864 0.258219 10.3612 0 10.8778 0H17.7824C18.2094 0 18.5556 0.345803 18.5556 0.773148V7.67787C18.5556 8.19431 18.2975 8.67678 17.8678 8.96369L13.9167 11.5972V17.7824C13.9167 18.2098 13.5705 18.5556 13.1435 18.5556H8.8912L6.18518 15.8495L7.1109 14.9239L5.94277 13.7558L4.99956 14.6989L3.85644 13.5558L4.79971 12.6127L3.63952 11.4523Z" fill="url(#paint0_linear)"/>
<path d="M1.5463 13.9167V17.0093H4.63889V18.5556H0V13.9167H1.5463Z" fill="url(#paint1_linear)"/>
</g>
</g>
</g>
<defs>
<filter id="filter0_f" x="1.353" y="-1.5463" width="18.7488" height="18.7488" filterUnits="userSpaceOnUse" color-interpolation-filters="sRGB">
<feFlood flood-opacity="0" result="BackgroundImageFix"/>
<feBlend mode="normal" in="SourceGraphic" in2="BackgroundImageFix" result="shape"/>
<feGaussianBlur stdDeviation="0.773148" result="effect1_foregroundBlur"/>
</filter>
<filter id="filter1_f" x="2.31015" y="6.10678" width="10.1387" height="10.1387" filterUnits="userSpaceOnUse" color-interpolation-filters="sRGB">
<feFlood flood-opacity="0" result="BackgroundImageFix"/>
<feBlend mode="normal" in="SourceGraphic" in2="BackgroundImageFix" result="shape"/>
<feGaussianBlur stdDeviation="0.773148" result="effect1_foregroundBlur"/>
</filter>
<filter id="filter2_f" x="10.0509" y="0.773284" width="7.73148" height="7.73148" filterUnits="userSpaceOnUse" color-interpolation-filters="sRGB">
<feFlood flood-opacity="0" result="BackgroundImageFix"/>
<feBlend mode="normal" in="SourceGraphic" in2="BackgroundImageFix" result="shape"/>
<feGaussianBlur stdDeviation="0.773148" result="effect1_foregroundBlur"/>
</filter>
<linearGradient id="paint0_linear" x1="9.27778" y1="0" x2="9.27778" y2="18.5556" gradientUnits="userSpaceOnUse">
<stop stop-color="white"/>
<stop offset="1" stop-color="white" stop-opacity="0"/>
</linearGradient>
<linearGradient id="paint1_linear" x1="9.27778" y1="0" x2="9.27778" y2="18.5556" gradientUnits="userSpaceOnUse">
<stop stop-color="white"/>
<stop offset="1" stop-color="white" stop-opacity="0"/>
</linearGradient>
<clipPath id="clip0">
<rect width="18" height="18" fill="white"/>
</clipPath>
</defs>
</svg>
